<?xml version="1.0" encoding="UTF-8"?>
<svg width="14px" height="16px" viewBox="0 0 14 16" version="1.1" xmlns="http://www.w3.org/2000/svg" xmlns:xlink="http://www.w3.org/1999/xlink">
    <!-- Generator: Sketch 55.2 (78181) - https://sketchapp.com -->
    <title>Icon/Delete_White</title>
    <desc>Created with Sketch.</desc>
    <g id="Page-1" stroke="none" stroke-width="1" fill="none" fill-rule="evenodd" stroke-linecap="round" stroke-linejoin="round">
        <g id="9_Site_Parameters" transform="translate(-1363.000000, -640.000000)" stroke="#FFFFFF">
            <g id="Icon/Delete_White" transform="translate(1363.000000, 641.000000)">
                <g id="Group-15">
                    <g id="Group-23">
                        <path d="M12.7272727,2.625 L11.3596853,13.4897226 C11.322983,13.7813014 11.0750302,14 10.7811505,14 L3.21884949,14 C2.92496978,14 2.67701696,13.7813014 2.64031473,13.4897226 L1.27272727,2.625 L0,2.625 L14,2.625" id="Path-Copy-2"></path>
                        <path d="M4.375,2.625 L4.375,0.583099987 C4.375,0.261062756 4.63606276,1.70179582e-16 4.95809999,0 L9.04190001,0 C9.36393724,-1.70179582e-16 9.625,0.261062756 9.625,0.583099987 L9.625,2.625" id="Path-Copy"></path>
                        <path d="M5.6875,5.25 L5.6875,10.9793433" id="Line-Copy-5"></path>
                        <path d="M8.3125,5.25 L8.3125,10.9793433" id="Line-Copy-4"></path>
                    </g>
                </g>
            </g>
        </g>
    </g>
</svg>